<svg viewBox="0 0 70 75.711" xmlns="http://www.w3.org/2000/svg"><g fill="#231f20" stroke="#000" stroke-width="2"><path d="M29.289 51.579A1.434 1.434 0 0 1 28 51.026c-.737-.921-17.132-19.342-17.132-32.605a18.421 18.421 0 0 1 36.842 0c0 13.263-16.395 31.684-17.132 32.605a1.434 1.434 0 0 1-1.289.553zm0-47.895a14.78 14.78 0 0 0-14.737 14.737c0 9.763 10.868 23.763 14.737 28.553 3.868-4.789 14.737-18.605 14.737-28.553A14.78 14.78 0 0 0 29.289 3.684z"/><path d="M29.289 25.79a7.368 7.368 0 1 1 7.368-7.368 7.39 7.39 0 0 1-7.368 7.368zm0-11.053a3.684 3.684 0 1 0 3.684 3.684 3.7 3.7 0 0 0-3.684-3.684zm39.79 35.369-9.211-7.368c-.368-.184-.553-.368-.921-.368l-17.684-1.843-2.763-2.579c-.737-.737-3.316 1.842-2.579 2.579l3.132 3.132a1.592 1.592 0 0 0 1.105.553L52.5 45.501 23.395 60.788 11.79 59.132l-7-7 18.053-9.579c.921-.553-.737-3.684-1.658-3.316L.921 49.922A1.385 1.385 0 0 0 0 51.211a2.971 2.971 0 0 0 .553 1.658l9.211 9.211c0 .368.368.553.921.553l12.526 1.842 16.21 10.868a2.618 2.618 0 0 0 1.105.368 2.618 2.618 0 0 0 1.105-.368l27.632-22.106A2.274 2.274 0 0 0 70 51.763a2.48 2.48 0 0 0-.921-1.657zM40.158 71.474l-12.895-8.658 31.132-16.394 6.447 5.158z"/></g></svg>