<svg xmlns="http://www.w3.org/2000/svg" width="720" height="503.999" xml:space="preserve"><linearGradient id="a" gradientUnits="userSpaceOnUse" x1="360" y1="503.999" x2="360" y2="0"><stop offset=".015" style="stop-color:#699573"/><stop offset=".245" style="stop-color:#8eab87"/><stop offset=".612" style="stop-color:#d1d2aa"/><stop offset=".926" style="stop-color:#efe199"/></linearGradient><path fill="url(#a)" d="M0 0h720v503.999H0z"/><path opacity=".3" fill="#5B7768" d="m389.006 409.789 30.576-13.165 134.578 41.642-92.383-11.103z"/><path opacity=".5" fill="#F2E9E4" d="M-.445 212.083s84.68 76.171 147.45 58.512c0 0 3.18 12.456-38.615 22.507C67.513 302.932-.695 280.948-.695 280.948l.25-68.865z"/><path opacity=".4" fill="#5B7768" d="M256.983 418.334 317 393.182l229.045 52.827-285.684 11.122z"/><path opacity=".2" fill="#FFFADE" d="m464.718 417.925 97.016-33.237 54.792 63.304-261.919 2.08z"/><path opacity=".4" fill="#F2E9E4" d="M0 127.671c6.349 3 110.081 90.478 276.095 58.979s81.206-75.692 83.905-86.192-41.035-67.432 97.566-53.857 262.311 0 262.311 0v76.57s-69.517-37.498-126.306 6c-56.79 43.498-122.926-47.997-147.22 47.998-24.295 95.995-134.971 101.994-184.909 82.495-49.939-19.499-167.363-55.496-191.658-64.496S0 166.669 0 166.669v-38.998z"/><path fill="#0B1110" d="m242.218 325.688-21.76 130.805 21.882-3.813 20.779 5.937-10.004-65.684z"/><path fill="#495A58" d="M242.185 325.508v57.778l15.017 22.611-6-32.121-5.828-11.564 5.103 5.805zm0 60.578 15.02 22.294 4.324 32.178-19.344-46.072zm.763 14.386 19.067 43.214.432 7.135-19.499-13.113zm0 40.086v10.263l20.171 5.019-.672-3.421z"/><path fill="#1A231F" d="M241.76 328.648v53.959l-10.86 8.824 3.902-22.555 5.469-8.836-4.515 3.317zm0 56.506v10.18l-14.762 15.102 3.902-16.121zm.425 15.318-15.842 13.654s-1.315 7.31-2.791 15.645c-.128.724 14.283-13.117 14.283-13.117l-15.412 19.526c-1.758 9.987-3.063 17.612-2.892 17.529.339-.172 22.653-3.207 22.653-3.207v-50.03z"/><path opacity=".4" fill="#CEC8B2" d="m263.119 455.84-.672-3.421-.3-.182-.274-1.804.574.388-.432-7.136-1.788-4.054-.519-3.413 1.821 4.339-4.324-32.178-2.245-3.333-.5-3.277 2.742 4.128-6-32.121-1.756-3.483-.685-4.227 1.716 1.95-8.292-42.509v.384l-1.33 7.994-5.099 29.472.223-.164-.86 5.172-.317.511-3.902 22.555.441-.357-.757 4.546-3.587 14.816 1.353-1.383-.649 3.903-1.358 1.17s-1.315 7.31-2.791 15.645c-.026.15.579-.333 1.549-1.186l-.886 5.323-1.792 2.271c-1.758 9.987-3.063 17.612-2.892 17.529.049-.027.579-.114 1.431-.242l-.503 3.026 21.882-3.813 20.778 5.938-.439-2.888.439.111z"/><path d="M87.959-.906h10.339v436.885H87.959zm10.339 48.707 14.87-13.612 6.527-35.314h1.254l-5.013 38.463-17.638 19.006zM87.959 27.609 75.829-1.125h-1.88s14.01 36.935 14.01 38.34v-9.606z" fill="#ACB18E"/><g fill="#ACB18E"><path d="M606.993-.906h10.339v436.885h-10.339zm0 48.707-14.87-13.612-6.527-35.314h-1.253l5.012 38.463 17.638 19.006z"/><path d="m617.332 27.609 12.13-28.735h1.881s-14.011 36.935-14.011 38.34v-9.605z"/></g><path fill="#ACB18E" d="M14.91 0h9.461v436.884H14.91z"/><path fill="#5B7768" d="m299.336 503.999 228.83-.646.002-21.64-51.735-25.015 14.419 14.419-20.306-12.948s-40.905-24.133-42.081-24.426c-1.178-.294 5.59 10.595 5.59 10.595l-71.952-26.34-35.314 26.487 18.393-6.622-33.548 28.84 38.258-13.538-47.676 29.431-2.88 21.403z"/><path fill="#ACB18E" d="m191.832 503.999 157.251-86-5.738 8.829 19.276-8.829-35.314 26.487 17.779-6.4-32.935 28.618 38.256-13.538-47.674 29.431-3.397 21.402zm236.633-70.255 5.59 10.595-26.846-9.826"/><path opacity=".2" fill="#FFFADE" d="m469.588 457.605 6.845-.906 14.419 14.419z"/><path fill="#5B7768" d="M362.103 417.999h-13.538l-5.739 8.829z"/><path fill="#0B1110" d="m527.93 276.296-29.725 178.681 29.892-5.21 28.382 8.11-13.665-89.726z"/><path fill="#495A58" d="M527.883 276.052v78.925l20.514 30.886-8.195-43.878-7.964-15.797 6.973 7.929zm0 82.749 20.519 30.454 5.905 43.952-26.424-62.932zm1.045 19.65 26.043 59.03.59 9.748-26.633-17.915zm0 54.756v14.022l27.551 6.853-.918-4.671z"/><path fill="#1A231F" d="M527.303 280.342v73.708l-14.834 12.052 5.333-30.81 7.469-12.071-6.167 4.533zm0 77.184v13.908l-20.166 20.628 5.332-22.02zm.58 20.925-21.639 18.65s-1.799 9.987-3.812 21.372c-.177.989 19.511-17.919 19.511-17.919l-21.054 26.672c-2.401 13.643-4.186 24.061-3.95 23.947.464-.236 30.943-4.383 30.943-4.383v-68.339z"/><path opacity=".4" fill="#CEC8B2" d="m556.479 454.082-.918-4.671-.408-.249-.375-2.462.783.528-.59-9.747-2.441-5.538-.71-4.663 2.487 5.927-5.904-43.952-3.067-4.554-.683-4.478 3.745 5.64-8.195-43.878-2.4-4.757-.935-5.777 2.344 2.666-11.328-58.065v.524l-1.816 10.919-6.963 40.259.302-.224-1.174 7.063-.43.698-5.333 30.81.602-.488-1.034 6.21-4.899 20.239 1.85-1.89-.888 5.332-1.854 1.597s-1.799 9.987-3.812 21.372c-.039.204.79-.456 2.114-1.622l-1.211 7.275-2.446 3.1c-2.401 13.643-4.186 24.061-3.95 23.947.066-.04.792-.157 1.953-.332l-.688 4.135 29.892-5.21 28.382 8.11-.599-3.944.597.15z"/><path fill="#0B1110" d="m612.395 303.998-15.759 94.733 15.847-2.761 15.048 4.3-7.244-47.572z"/><path fill="#495A58" d="M612.37 303.868v41.846l10.876 16.375-4.345-23.264-4.221-8.375 3.696 4.204zm0 43.872 10.879 16.147 3.13 23.302-14.009-33.365zm.554 10.419 13.807 31.297.314 5.168-14.121-9.497zm0 29.03v7.435l14.607 3.634-.486-2.477z"/><path fill="#1A231F" d="M612.062 306.143v39.079l-7.864 6.389 2.826-16.334 3.961-6.4-3.27 2.403zm0 40.922v7.373l-10.691 10.938 2.827-11.676zm.308 11.094-11.473 9.889s-.954 5.294-2.021 11.331c-.094.523 10.344-9.5 10.344-9.5l-11.162 14.141c-1.273 7.233-2.219 12.756-2.095 12.695.246-.124 16.406-2.323 16.406-2.323v-36.233z"/><path opacity=".4" fill="#CEC8B2" d="m627.531 398.258-.486-2.477-.217-.132-.199-1.306.416.28-.313-5.168-1.294-2.937-.377-2.472 1.318 3.142-3.13-23.303-1.626-2.414-.362-2.374 1.985 2.99-4.345-23.264-1.272-2.521-.496-3.062 1.243 1.413-6.006-30.786v.278l-.963 5.789-3.692 21.345.16-.119-.622 3.745-.229.371-2.826 16.334.318-.259-.548 3.292-2.598 10.731.98-1.002-.471 2.826-.983.848s-.954 5.294-2.021 11.331c-.021.108.419-.242 1.121-.86l-.643 3.856-1.297 1.645c-1.273 7.233-2.219 12.756-2.095 12.695.036-.021.421-.083 1.035-.176l-.363 2.192 15.848-2.762 15.048 4.3-.317-2.091.319.082z"/><path fill="#0B1110" d="m486.562 341.033-18.254 109.735 18.357-3.201 17.431 4.982-8.392-55.105z"/><path fill="#495A58" d="M486.534 340.883v48.471l12.599 18.968-5.033-26.947-4.891-9.701 4.281 4.87zm0 50.819 12.602 18.703 3.626 26.992-16.228-38.648zm.642 12.069 15.994 36.252.361 5.986-16.355-11.001zm0 33.626v8.612l16.92 4.21-.565-2.869z"/><path fill="#1A231F" d="M486.178 343.518v45.266l-9.111 7.402 3.275-18.921 4.588-7.414-3.788 2.785zm0 47.402v8.54l-12.385 12.67 3.274-13.525zm.356 12.851-13.29 11.454s-1.104 6.133-2.341 13.125c-.108.607 11.982-11.004 11.982-11.004l-12.929 16.38c-1.476 8.379-2.571 14.775-2.428 14.706.285-.145 19.005-2.691 19.005-2.691v-41.97z"/><path opacity=".4" fill="#CEC8B2" d="m504.096 450.219-.564-2.869-.25-.153-.23-1.512.48.324-.361-5.985-1.5-3.402-.436-2.863 1.527 3.64-3.626-26.992-1.884-2.797-.42-2.75 2.301 3.464-5.033-26.947-1.475-2.921-.574-3.548 1.439 1.638-6.956-35.661v.322l-1.116 6.706-4.276 24.725.186-.139-.722 4.339-.264.429-3.274 18.921.37-.3-.636 3.813-3.009 12.431 1.136-1.161-.545 3.274-1.14.981s-1.104 6.133-2.341 13.125c-.023.126.485-.28 1.299-.996l-.743 4.468-1.502 1.904c-1.476 8.379-2.571 14.775-2.428 14.706.042-.023.487-.097 1.199-.203l-.421 2.539 18.357-3.2 17.431 4.981-.368-2.422.369.091z"/><path fill="#0B1110" d="m273.833 370.56-13.446 80.825 13.522-2.358 12.838 3.669-6.181-40.587z"/><path fill="#495A58" d="M273.812 370.451v35.7l9.279 13.97-3.707-19.847-3.602-7.145 3.154 3.587zm0 37.429 9.281 13.775 2.671 19.882-11.952-28.467zm.473 8.89 11.779 26.7.267 4.41-12.046-8.104zm0 24.767v6.343l12.462 3.1-.416-2.114z"/><path fill="#1A231F" d="M273.55 372.391v33.339l-6.71 5.454 2.411-13.937 3.379-5.461-2.789 2.051zm0 34.914v6.29l-9.122 9.332 2.412-9.962zm.262 9.465-9.789 8.437s-.813 4.518-1.724 9.667c-.081.447 8.826-8.106 8.826-8.106l-9.523 12.065c-1.086 6.171-1.893 10.883-1.787 10.831.209-.105 13.998-1.98 13.998-1.98V416.77z"/><path opacity=".4" fill="#CEC8B2" d="m286.747 450.98-.416-2.114-.185-.112-.169-1.113.354.239-.267-4.41-1.104-2.505-.322-2.107 1.125 2.68-2.671-19.882-1.387-2.059-.31-2.025 1.694 2.55-3.708-19.847-1.085-2.151-.423-2.613 1.061 1.206-5.124-26.265v.236l-.823 4.938-3.149 18.211.137-.101-.532 3.194-.194.316-2.412 13.937.272-.222-.468 2.81-2.216 9.155.837-.855-.402 2.412-.839.723s-.813 4.518-1.724 9.667c-.018.092.357-.206.957-.734l-.548 3.291-1.106 1.402c-1.086 6.171-1.893 10.883-1.787 10.831.03-.017.358-.07.884-.149l-.312 1.871 13.521-2.357 12.838 3.669-.271-1.784.274.067z"/><path fill="#0B1110" d="m301.561 415.312-8.872 53.332 8.922-1.556 8.471 2.421-4.079-26.781z"/><path fill="#495A58" d="M301.547 415.239v23.557l6.123 9.219-2.446-13.097-2.377-4.715 2.081 2.367zm0 24.698 6.124 9.089 1.763 13.12-7.887-18.785zm.312 5.866 7.773 17.618.176 2.91-7.949-5.348zm0 16.343v4.185l8.223 2.046-.274-1.396z"/><path fill="#1A231F" d="M301.374 416.52v21.999l-4.428 3.598 1.592-9.196 2.229-3.604-1.84 1.353zm0 23.038v4.15l-6.019 6.157 1.591-6.573zm.173 6.245-6.459 5.566s-.536 2.98-1.137 6.379c-.053.295 5.823-5.349 5.823-5.349l-6.284 7.961c-.717 4.072-1.249 7.181-1.179 7.146.138-.069 9.236-1.307 9.236-1.307v-20.396z"/><path opacity=".4" fill="#CEC8B2" d="m310.082 468.377-.274-1.396-.122-.074-.112-.734.233.158-.176-2.91-.728-1.653-.212-1.391.742 1.769-1.763-13.119-.915-1.358-.204-1.337 1.118 1.684-2.446-13.097-.716-1.42-.28-1.724.7.796-3.381-17.331v.156l-.543 3.259-2.078 12.016.09-.066-.351 2.108-.128.209-1.591 9.196.18-.146-.309 1.854-1.462 6.041.552-.564-.265 1.592-.554.477s-.536 2.98-1.137 6.379c-.012.061.236-.136.631-.484l-.362 2.172-.73.925c-.717 4.072-1.249 7.181-1.179 7.146.02-.011.237-.046.583-.099l-.205 1.235 8.922-1.556 8.471 2.421-.179-1.178.18.044z"/><path fill="#0B1110" d="m418.693 431.627-8.605 51.73 8.654-1.509 8.217 2.349-3.956-25.977z"/><path fill="#495A58" d="M418.68 431.557v22.849l5.939 8.942-2.373-12.702-2.305-4.575 2.018 2.297zm0 23.956 5.94 8.817 1.71 12.724-7.65-18.22zm.302 5.689 7.539 17.089.171 2.823-7.71-5.186zm0 15.852v4.06l7.977 1.986-.267-1.354z"/><path fill="#1A231F" d="M418.512 432.798v21.339l-4.294 3.49 1.543-8.92 2.163-3.494-1.785 1.311zm0 22.348v4.025l-5.838 5.972 1.544-6.376zm.168 6.056-6.265 5.399s-.521 2.893-1.104 6.188c-.052.286 5.649-5.188 5.649-5.188l-6.096 7.722c-.695 3.949-1.212 6.965-1.145 6.932.135-.067 8.959-1.268 8.959-1.268v-19.785z"/><path opacity=".4" fill="#CEC8B2" d="m426.959 483.1-.267-1.354-.118-.072-.108-.712.227.152-.171-2.823-.705-1.603-.207-1.35.721 1.715-1.71-12.724-.888-1.317-.197-1.298 1.084 1.633-2.373-12.702-.695-1.377-.27-1.674.678.773-3.279-16.812v.152l-.525 3.159-2.016 11.656.087-.064-.341 2.044-.124.203-1.543 8.92.174-.141-.3 1.797-1.418 5.859.535-.546-.257 1.543-.537.462s-.521 2.893-1.104 6.188c-.011.059.229-.133.612-.471l-.351 2.106-.708.897c-.695 3.949-1.212 6.965-1.145 6.932.02-.01.23-.045.565-.095l-.198 1.197 8.654-1.51 8.217 2.35-.174-1.143.175.05z"/><path fill="#0B1110" d="m453.993 373.482-17.575 105.647 17.674-3.081 16.781 4.796-8.079-53.052z"/><path fill="#495A58" d="M453.966 373.338v46.665l12.129 18.263-4.846-25.945-4.708-9.34 4.122 4.689zm0 48.926 12.132 18.007 3.491 25.986-15.623-37.208zm.617 11.619 15.398 34.902.349 5.763-15.747-10.592zm0 32.374v8.291l16.29 4.053-.543-2.763z"/><path fill="#1A231F" d="M453.623 375.874v43.58l-8.771 7.127 3.152-18.217 4.417-7.137-3.647 2.68zm0 45.637v8.222l-11.924 12.198 3.153-13.021zm.343 12.372-12.795 11.027s-1.063 5.904-2.253 12.636c-.104.585 11.535-10.594 11.535-10.594l-12.447 15.77c-1.421 8.066-2.475 14.226-2.336 14.158.273-.139 18.296-2.591 18.296-2.591v-40.406z"/><path opacity=".4" fill="#CEC8B2" d="m470.873 478.601-.543-2.763-.241-.146-.222-1.457.463.313-.349-5.763-1.443-3.275-.42-2.757 1.471 3.504-3.491-25.986-1.813-2.692-.404-2.648 2.215 3.336-4.846-25.944-1.419-2.812-.553-3.415 1.386 1.576-6.697-34.332v.311l-1.075 6.455-4.116 23.804.179-.133-.694 4.177-.255.413-3.152 18.217.356-.289-.612 3.671-2.896 11.968 1.094-1.117-.524 3.151-1.098.945s-1.063 5.904-2.253 12.636c-.023.122.467-.27 1.25-.959l-.716 4.302-1.446 1.833c-1.421 8.066-2.475 14.226-2.336 14.158.039-.022.468-.093 1.154-.196l-.406 2.445 17.674-3.081 16.781 4.796-.354-2.332.351.086z"/><path fill="#3E5348" d="m0 360.085 87.104 45.582 175.491 25.334L360 503.999H0z"/><path fill="#0B1110" d="M13.732 346.779.096 262.629v171.064l28.097 8.03z"/><path fill="#495A58" d="m10.966 319.089-8.423-16.715 7.376 8.39-9.823-50.355v75.684l19.544 29.426zm8.679 50.017L.096 340.094v14.082l25.798 61.439zm6.953 51.032L.096 360.077v52.136l27.126 18.241zm.624 12.626L.096 416.26v14.458l28.097 6.99z"/><path opacity=".3" fill="#CEC8B2" d="m27.557 437.55.636.158-.971-4.944-.434-.264-.396-2.604.83.558-.624-10.316-2.585-5.859-.751-4.932 2.632 6.268-6.249-46.509-3.246-4.816-.721-4.737 3.962 5.966-8.674-46.43-2.536-5.034-.991-6.113 2.48 2.822-9.823-50.355v173.284l28.097 8.03z"/><path fill="#0B1110" d="M32.911 249.579 1.458 438.652l31.629-5.512 30.036 8.583-14.461-94.944z"/><path fill="#495A58" d="M32.862 249.318v83.517l21.708 32.684-8.674-46.43-8.423-16.715 7.376 8.39zm0 87.565 21.712 32.223 6.25 46.509-27.962-66.592zm1.104 20.793 27.562 62.462.623 10.316L33.966 411.5zm0 57.939v14.839l29.157 7.254-.972-4.944z"/><path fill="#1A231F" d="M32.25 253.857v77.997l-15.698 12.754 5.64-32.602 7.906-12.774-6.527 4.797zm0 81.677v14.716l-21.339 21.829 5.641-23.301zm.612 22.142L9.964 377.413s-1.901 10.564-4.034 22.613c-.185 1.045 20.646-18.96 20.646-18.96L4.298 409.29c-2.541 14.437-4.427 25.459-4.18 25.336.491-.246 32.744-4.634 32.744-4.634v-72.316z"/><path fill="#0B1110" d="M81.601 275.23 53.919 441.64l27.837-4.852 26.435 7.554-12.727-83.563z"/><path fill="#495A58" d="M81.558 275.002v73.505l19.106 28.765-7.635-40.864-7.413-14.711 6.492 7.384zm0 77.067 19.109 28.362 5.5 40.933-24.609-58.609zm.972 18.301 24.257 54.975.549 9.079-24.806-16.682zm0 50.994v13.06l25.661 6.385-.855-4.352z"/><path fill="#1A231F" d="M81.019 278.997v68.647l-13.816 11.225 4.964-28.694 6.958-11.242-5.745 4.221zm0 71.886v12.951l-18.781 19.213 4.965-20.508zm.539 19.487-20.153 17.371s-1.673 9.298-3.55 19.902c-.163.92 18.171-16.687 18.171-16.687l-19.607 24.84c-2.236 12.706-3.896 22.407-3.679 22.299.432-.217 28.819-4.078 28.819-4.078V370.37z"/><path opacity=".2" fill="#CEC8B2" d="m108.191 440.809-.855-4.352-.381-.232-.349-2.292.73.491-.549-9.079-2.275-5.156-.661-4.342 2.316 5.518-5.5-40.934-2.856-4.239-.635-4.17 3.488 5.251-7.634-40.864-2.232-4.431-.872-5.379 2.183 2.482-10.55-54.079v.487l-1.691 10.169-6.486 37.496.283-.208-1.094 6.578-.402.65-4.964 28.694.561-.456-.962 5.783-4.563 18.851 1.721-1.761-.826 4.966-1.728 1.489s-1.673 9.298-3.55 19.902c-.034.191.738-.425 1.97-1.509l-1.126 6.773-2.28 2.889c-2.236 12.706-3.896 22.407-3.679 22.299.063-.031.737-.143 1.82-.307l-.641 3.851 27.837-4.852 26.435 7.554-.56-3.673.557.142z"/><g fill="#564B3B"><path d="M42.106 0h16.499v436.886H42.106z"/><path d="m58.605 48.707 23.728-13.612L92.75-.22h2l-8 38.464L58.605 57.25zM42.106 28.515 22.75-.22h-3s22.356 36.935 22.356 38.34v-9.605z"/></g><path opacity=".5" fill="#F2E9E4" d="M720 156.576s-84.68 76.171-147.45 58.512c0 0-3.18 12.456 38.615 22.506 40.877 9.83 109.085-12.154 109.085-12.154l-.25-68.864z"/><path d="M687.877-.906h13.285V435.98h-13.285zm0 48.707v8.543l-10.811-6.378 4.896-6.379zm13.285-20.192 15.586-28.735h2.416s-18.002 36.935-18.002 38.34v-9.605z" fill="#564B3B"/><path fill="#58745C" d="M87.104 405.667c3.007 1.285 175.491 25.334 175.491 25.334L104 418.334l-16.896-12.667z"/><path fill="#0B1110" d="m181.146 278.994-27.683 166.409 27.837-4.851 26.435 7.553-12.727-83.562z"/><path fill="#495A58" d="M181.103 278.766v73.505l19.105 28.765-7.634-40.864-7.413-14.711 6.491 7.384zm0 77.067 19.109 28.361 5.5 40.934-24.609-58.609zm.971 18.301 24.258 54.974.548 9.08-24.806-16.682zm0 50.994v13.06l25.661 6.384-.855-4.351z"/><path fill="#1A231F" d="M180.563 282.761v68.646l-13.816 11.226 4.964-28.695 6.958-11.242-5.744 4.222zm0 71.885v12.952l-18.781 19.213 4.965-20.508zm.54 19.488-20.153 17.371s-1.673 9.298-3.55 19.902c-.163.92 18.171-16.687 18.171-16.687l-19.607 24.84c-2.236 12.706-3.896 22.407-3.679 22.299.432-.217 28.819-4.078 28.819-4.078v-63.647z"/><path opacity=".4" fill="#CEC8B2" d="m207.735 444.572-.855-4.352-.381-.232-.349-2.292.73.491-.549-9.079-2.275-5.156-.661-4.342 2.316 5.518-5.5-40.934-2.856-4.239-.635-4.17 3.488 5.251-7.634-40.864-2.232-4.431-.872-5.379 2.183 2.482-10.55-54.079v.487l-1.691 10.169-6.486 37.496.283-.208-1.094 6.578-.402.65-4.964 28.694.561-.456-.962 5.783-4.563 18.851 1.721-1.761-.826 4.966-1.728 1.489s-1.673 9.298-3.55 19.902c-.034.191.738-.425 1.97-1.509l-1.126 6.773-2.28 2.889c-2.236 12.706-3.896 22.407-3.679 22.299.063-.031.737-.143 1.82-.307l-.641 3.851 27.837-4.852 26.435 7.554-.56-3.673.557.142z"/><g opacity=".8"><path fill="#2E1808" d="M138.366-.192h16v431.193h-16z"/><path fill="#B26D3E" d="m154.366 186.65-10.334-21.861V-.192h10.334z"/></g><g opacity=".8"><path fill="#425648" d="M249.695-1.618h10.667v458.749h-10.667z"/><path fill="#869B7B" d="m260.361 197.166-6.888-23.259V-1.618h6.888z"/></g><path fill="#ACB18E" d="M555.292 0h10.667v458.748h-10.667z"/><path fill="#BEC19F" d="m555.292 198.783 6.889-23.259V0h-6.889z"/><path fill="#3E5348" d="m720 284.714-102.333 82.594-28.665 50.198-87.919 9.694-76.497 33.582-52.497 43.217H720z"/><path fill="#0B1110" d="m652.204 227.756 39.444 237.118-39.665-6.914-37.668 10.765 18.136-119.07z"/><path fill="#495A58" d="m652.134 225.44.132 104.722-26.77 37.871 8.567-45.856 12.92-16.39-11.893 10.895 4.111-22.011 10.616-15.342-8.947 6.405zm.132 111.804-27.408 37.378-7.837 58.327 35.245-80.479zm-1.385 28.919-35.348 78.333v10.097l35.348-23.771z"/><path fill="#495A58" d="M650.881 430.822v23.771l-36.566 9.096 1.218-11.083z"/><path fill="#1A231F" d="M653.033 233.122v97.816l19.688 15.996zm0 102.431v18.456l26.762 27.376-7.074-29.222zm-.767 27.768 28.717 24.752s1.988 11.074 4.151 23.248l-20.4-10.409 22.352 21.438c3.267 18.53 6.562 37.633 6.245 37.475-.615-.309-41.064-5.811-41.064-5.811v-90.693z"/><path fill="#0B1110" d="m704.287 217.427-19.753 121.899-18.136 119.07 37.668-10.765 16.184 2.821V313.388z"/><path fill="#495A58" d="m704.217 215.111.132 104.722-26.77 37.871 8.567-45.856 12.92-16.39-11.893 10.895 4.111-22.011L701.9 269l-8.947 6.405zm.132 111.804-27.408 37.378-7.837 58.327 35.245-80.479zm-1.385 28.919-35.348 78.333v10.097l35.348-23.771z"/><path fill="#495A58" d="M702.964 420.493v23.771l-36.566 9.096 1.218-11.083z"/><path fill="#1A231F" d="M705.116 222.793v97.816l15.134 12.296V310.28zm0 102.431v18.456l15.134 15.481v-21.169zm11.7 65.359 3.434 1.752v-25.637l-15.901-13.706v90.692s7.391 1.005 15.901 2.181v-51.989l-3.434-3.293z"/><path opacity=".5" fill="#1E0F04" d="m706.815 232.338-2.484-14.934-.067.412-.003-2.728-11.264 60.294 2.193-1.57-1.042 6.43-2.82 4.076-4.111 22.011 3.176-2.909-.627 3.869-3.576 4.535-8.567 45.857 5.297-7.494-1.15 7.558-4.785 6.525-7.837 58.327 4.206-9.604-1.961 12.879-3.733 8.272v8.11l-1.218 11.083.797-.198-.797 5.233 37.668-10.765 16.14 2.814V310.002z"/><path opacity=".3" fill="#1E0F04" d="m687.085 422.35-2.987-2.865-1.58-9.498 2.616 1.335c-2.163-12.174-4.151-23.248-4.151-23.248l-2.463-2.123-1.177-7.074 2.452 2.509-6.504-26.867-1.37-8.233.8.649-18.032-104.242-2.484-14.935-.067.413-.003-2.729-11.264 60.294 2.193-1.57-1.042 6.431-2.82 4.076-4.111 22.011 3.176-2.909-.627 3.869-3.575 4.535-8.567 45.856 5.297-7.494-1.15 7.559-4.784 6.524-7.837 58.327 4.206-9.604-1.962 12.879-3.732 8.271v8.11l-1.218 11.083.797-.198-.797 5.233 37.668-10.765 39.665 6.914-.913-5.488c1.552.235 2.505.394 2.595.438.314.158-2.981-18.944-6.248-37.474z"/><path fill="#2E1808" d="M205.405.004h12.52v440.732h-12.52z"/><path fill="#B26D3E" d="M228.304 440.736h-10.379V.003l10.379-.195z"/><path fill="#2E1808" d="m227.151 416.751 4.942 10.419 2.306 18.483h1.648V427.17l-9.24-29.816z"/><path fill="#2E1808" d="m217.102 304.963 11.202 44.016.331 19.276-4.285-14.899 2.533 45.371v4.078l1.475 16.879.446 21.052h-11.702zm.823-109.561-1.071 23.608 11.342 46.969.108-21.577zm0-91.748 5.766 7.562-5.766-31.759zm0-76.12 5.766 21.173-5.766-8.066z"/><path fill="#1E0F04" d="m205.405 350.333-10.543 39.991v45.706h3.625l1.647-42.848 5.271-23.021zm1.262-55.127 8.458 37.314s2.965 105.191 2.965 105.527-11.423-6.059-11.423-6.059V295.206z"/><path fill="#2E1808" d="m205.405 39.091-10.543-7.02L140.996-.192h-8.402l23.408 16.108 38.86 26.741 10.543 27.726z"/><path fill="#2E1808" d="M129.135 10.898 116.903-.192h-4.695l16.927 16.635 35.387 5.336-8.669-8.163z"/><path fill="#B26D3E" d="M228.304 35.095 250.213-.192h4.118L228.304 47.53z"/><path fill="#1E0F04" d="M197.504 426.025 157.007 434l-43.365 18-23.142 7.607L0 445.653v28.627l57.142-9.268L89.642 487l80-21.988 79.5 4.488-28.411-30.852-12.848-12.623z"/><path fill="#341E0A" d="m0 434.732 205.241-8.707.018 1.643 23.545 9.218L354 503.999H0zm720-45.196-55.425 63.545-105.464 16.664-128.524 10.334-32.998 23.92H720z"/><path fill="#2E1808" d="M641.166 462.444h28V0h-28z"/><path fill="#1E0F04" d="m683.999 372.554-1.874 67.321-4.875 4.25-1.251-71.571-7.5-8.833v-34.295z"/><path fill="#B26D3E" d="m656.5 43.995-15.333 13.681v99.245L656.5 136.83zm-2.667 115.697-12.666 11.777v234.198l12.666-76.241zm0-159.692v23.211L641.167 40.53V0z"/><path fill="#2E1808" d="M662.083 60.706 699.916-.22h6l-43.834 81.5z"/><path fill="#B26D3E" d="M643.001 22.333 625.49 0h-7.823l25.334 37z"/><path fill="#1E0F04" d="m246.5 476 5.283.054L354 503.999l-42-1.114-89.421 1.114H0v-44.392L50.356 472 87 492.5l67.366-27.488z"/><path fill="#2E1808" d="m669.166 294.375 5.723 18.987-.222 4.429-5.501-6.828z"/><path fill="#1E0F04" d="m641.167 431.001 28.425-98.534-.426 129.977h-28z"/><path fill="#1E0F04" d="m720 417.67-24.209 19.699v14.301l-14.096-12.831-12.934 9.968v11.53l-27.276 2.107-29.267 17.893-22.551 13.333 33.827-6-23.878 16.554H720z"/><path fill="#341E0A" d="m720 257-.123.594.123-.083V257z"/><path fill="#58745C" d="m618.917 366.133-21.725 52.654-80.942 21.949-13.917-14.711 87.919-15.846z"/><path fill="#58745C" d="m426.586 459.607 82.189-27.565-5.692-6.017z"/><path fill="#0B1110" d="M112.278 199.768 72.833 436.886l39.666-6.914 37.668 10.764-18.135-119.069z"/><path fill="#495A58" d="M112.217 199.441V304.18l27.223 40.988-10.877-58.227L118 265.979l9.25 10.521zm0 109.815 27.229 40.412 7.838 58.327-35.067-83.514zm1.385 26.077 34.565 78.334.782 12.937-35.347-23.77zm0 72.662v18.609l36.565 9.097-1.218-6.2z"/><path fill="#1A231F" d="M111.449 205.134v97.816l-19.687 15.995 7.073-40.887 9.915-16.019-8.185 6.016zm0 102.43v18.457l-26.761 27.375 7.074-29.221zm.768 27.769L83.5 360.085s-2.384 13.249-5.058 28.36c-.232 1.31 25.892-23.778 25.892-23.778l-27.939 35.396c-3.186 18.104-5.552 31.928-5.242 31.773.615-.309 41.064-5.811 41.064-5.811v-90.692z"/><path opacity=".6" fill="#0B1110" d="M71.132 435.701.096 453.25 0 503.999l65.665-1.114 80.701-64.468-33.867-8.445z"/><path fill="#0B1110" d="m571.721 237.594 39.444 237.118-39.665-6.914-37.668 10.764 18.136-119.069z"/><path fill="#495A58" d="M571.65 235.278 571.782 340l-26.769 37.871 8.567-45.856 12.92-16.39-11.894 10.895 4.112-22.011 10.616-15.342-8.947 6.405zm.132 111.804-27.407 37.378-7.837 58.327 35.244-80.479zm-1.385 28.919-35.347 78.333v10.097l35.347-23.771z"/><path fill="#495A58" d="M570.397 440.66v23.771l-36.565 9.096 1.218-11.083z"/><path fill="#1A231F" d="M572.55 242.96v97.816l19.687 15.995zm0 102.431v18.456l26.762 27.376-7.075-29.222zm-.768 27.768 28.717 24.752s1.988 11.074 4.151 23.248l-20.4-10.409 22.352 21.438c3.267 18.53 6.562 37.633 6.245 37.475-.615-.309-41.064-5.811-41.064-5.811v-90.693z"/><path opacity=".6" fill="#0B1110" d="m612.847 469.662 99.653 34.562-28.501-.225H573.787l-39.955-25.437 37.668-11.889z"/><g fill="#FFFADE"><g opacity=".4"><path opacity=".2" d="m481.617 0 59.654-.001-187.271 504h-68zm207.551-.22 30.709.22.123 41.178-167.709 462.821h-56.606zM285-.192h52.25L141.686 503.552H84.688z"/></g><g opacity=".8"><path opacity=".2" d="M372.089.447h63.997L249.119 503.552h-77.946zM583.543 0h45.875L447.084 503.999h-56.748zM177.917 0h52.333L34.342 504.538 0 503.999v-56.48z"/></g></g><g opacity=".7" fill="#3E5348"><path d="M453.475 257.593s1.424 2.334 1.883 2.375.359-1.741 1.75-2.375c1.642-.749-3.633 0-3.633 0z"/><path d="M464.435 259.67c-.458-1.35-4.358-2.994-8.233-1.869s3.75-3.25 7.375-1.5 1.092 3.401 1.092 3.401l-.234-.032z"/><path d="M443.475 255.674s8-.456 10 1.919c.805.956 2.122.857 1.737.199-.639-1.091-2.727-3.362-4.987-3.699-2.12-.317-5.659.67-6.75 1.581z"/></g><g opacity=".7" fill="#3E5348"><path d="M585.506 168.582s.591.964.78.981c.188.017.146-.719.724-.981.677-.31-1.504 0-1.504 0z"/><path d="M590.036 169.439c-.189-.558-1.802-1.237-3.403-.771-1.601.464 1.551-1.343 3.049-.621 1.497.723.45 1.405.45 1.405l-.096-.013z"/><path d="M581.375 167.788s3.305-.188 4.131.794c.334.394.878.354.72.082-.265-.45-1.127-1.389-2.062-1.528-.876-.132-2.339.275-2.789.652z"/></g><g opacity=".7" fill="#3E5348"><path d="M476.324 235.684s.973 1.594 1.286 1.622c.313.028.246-1.189 1.195-1.622 1.123-.512-2.481 0-2.481 0z"/><path d="M483.811 237.102c-.312-.922-2.977-2.045-5.624-1.277-2.646.769 2.562-2.22 5.038-1.024 2.476 1.195.745 2.323.745 2.323l-.159-.022z"/><path d="M469.494 234.373s5.465-.312 6.83 1.311c.55.653 1.45.585 1.188.136-.437-.745-1.863-2.296-3.407-2.527-1.448-.216-3.865.457-4.611 1.08z"/></g><g opacity=".7" fill="#3E5348"><path d="M519.184 148.28s.973 1.594 1.286 1.622c.313.028.246-1.189 1.195-1.622 1.122-.512-2.481 0-2.481 0z"/><path d="M526.67 149.698c-.312-.922-2.977-2.045-5.624-1.277-2.646.769 2.562-2.22 5.038-1.024 2.476 1.195.745 2.323.745 2.323l-.159-.022z"/><path d="M512.354 146.969s5.465-.312 6.83 1.311c.55.653 1.45.585 1.188.136-.437-.745-1.863-2.296-3.407-2.527-1.448-.216-3.865.457-4.611 1.08z"/></g><g opacity=".7" fill="#3E5348"><path d="M299.803 154.451s1.685.805 1.963.657c.278-.147-.443-1.131.116-2.011.661-1.042-2.079 1.354-2.079 1.354z"/><path d="M306.85 151.554c-.765-.602-3.61-.089-5.409 2-1.798 2.088.935-3.258 3.663-3.608 2.727-.35 1.892 1.54 1.892 1.54l-.146.068z"/><path d="M293.364 157.08s4.409-3.243 6.438-2.629c.817.247 1.535-.301 1.069-.534-.772-.386-2.814-.907-4.234-.258-1.329.609-2.987 2.492-3.273 3.421z"/></g><g opacity=".7" fill="#3E5348"><path d="M190.218 105.006s1.685.805 1.963.657c.278-.147-.443-1.131.116-2.011.661-1.041-2.079 1.354-2.079 1.354z"/><path d="M197.265 102.109c-.765-.602-3.61-.089-5.409 2-1.798 2.088.935-3.258 3.663-3.608 2.727-.35 1.892 1.54 1.892 1.54l-.146.068z"/><path d="M183.779 107.635s4.409-3.243 6.438-2.629c.817.247 1.535-.301 1.069-.534-.772-.386-2.814-.907-4.234-.258-1.329.609-2.987 2.493-3.273 3.421z"/></g></svg>